0
SECTION
2
HEADER
9
$INSUNITS
70
4
9
$ACADVER
1
AC1014
9
$HANDSEED
5
FFFF
0
ENDSEC
0
SECTION
2
TABLES
0
TABLE
2
VPORT
5
8
100
AcDbSymbolTable
0
ENDTAB
0
TABLE
2
LTYPE
5
5
100
AcDbSymbolTable
0
LTYPE
5
14
100
AcDbSymbolTableRecord
100
AcDbLinetypeTableRecord
2
BYBLOCK
70
0
0
LTYPE
5
15
100
AcDbSymbolTableRecord
100
AcDbLinetypeTableRecord
2
BYLAYER
70
0
0
ENDTAB
0
TABLE
2
LAYER
5
2
100
AcDbSymbolTable
70
2
0
LAYER
5
50
100
AcDbSymbolTableRecord
100
AcDbLayerTableRecord
2
0
70
0
6
CONTINUOUS
0
ENDTAB
0
TABLE
2
STYLE
5
3
100
AcDbSymbolTable
70
1
0
STYLE
5
11
100
AcDbSymbolTableRecord
100
AcDbTextStyleTableRecord
2
STANDARD
70
0
0
ENDTAB
0
TABLE
2
VIEW
5
6
100
AcDbSymbolTable
70
0
0
ENDTAB
0
TABLE
2
UCS
5
7
100
AcDbSymbolTable
70
0
0
ENDTAB
0
TABLE
2
APPID
5
9
100
AcDbSymbolTable
70
2
0
APPID
5
12
100
AcDbSymbolTableRecord
100
AcDbRegAppTableRecord
2
ACAD
70
0
0
ENDTAB
0
TABLE
2
DIMSTYLE
5
A
100
AcDbSymbolTable
70
1
0
ENDTAB
0
TABLE
2
BLOCK_RECORD
5
1
100
AcDbSymbolTable
70
1
0
BLOCK_RECORD
5
1F
100
AcDbSymbolTableRecord
100
AcDbBlockTableRecord
2
*MODEL_SPACE
0
BLOCK_RECORD
5
1B
100
AcDbSymbolTableRecord
100
AcDbBlockTableRecord
2
*PAPER_SPACE
0
ENDTAB
0
ENDSEC
0
SECTION
2
BLOCKS
0
BLOCK
5
20
100
AcDbEntity
100
AcDbBlockBegin
2
*MODEL_SPACE
0
ENDBLK
5
21
100
AcDbEntity
100
AcDbBlockEnd
0
BLOCK
5
1C
100
AcDbEntity
100
AcDbBlockBegin
2
*PAPER_SPACE
0
ENDBLK
5
1D
100
AcDbEntity
100
AcDbBlockEnd
0
ENDSEC
0
SECTION
2
ENTITIES
0
LWPOLYLINE
5
100
100
AcDbEntity
8
0
100
AcDbPolyline
90
8
70
1
43
0.0
10
3.0249999999999999
20
-2.5249999999999999
10
16.024999999999999
20
-2.5250000000000017
42
-0.41421356237309503
10
16.524999999999999
20
-3.0249999999999999
10
16.524999999999999
20
-16.024999999999999
42
-0.41421356237309503
10
16.024999999999999
20
-16.524999999999999
10
3.0249999999999999
20
-16.525000000000002
42
-0.41421356237309503
10
2.5249999999999999
20
-16.024999999999999
10
2.5249999999999999
20
-3.0249999999999999
42
-0.41421356237309503
0
LWPOLYLINE
5
101
100
AcDbEntity
8
0
100
AcDbPolyline
90
8
70
1
43
0.0
10
22.074999999999999
20
-2.5249999999999999
10
35.075000000000003
20
-2.5249999999999972
42
-0.41421356237309503
10
35.575000000000003
20
-3.0249999999999999
10
35.575000000000003
20
-16.024999999999999
42
-0.41421356237309503
10
35.075000000000003
20
-16.524999999999999
10
22.074999999999999
20
-16.524999999999999
42
-0.41421356237309503
10
21.575000000000003
20
-16.024999999999999
10
21.575000000000003
20
-3.0249999999999999
42
-0.41421356237309503
0
LWPOLYLINE
5
102
100
AcDbEntity
8
0
100
AcDbPolyline
90
8
70
1
43
0.0
10
41.125
20
-2.5249999999999999
10
54.125000000000007
20
-2.5250000000000017
42
-0.41421356237309503
10
54.625
20
-3.0249999999999999
10
54.625
20
-16.024999999999999
42
-0.41421356237309503
10
54.125000000000007
20
-16.524999999999999
10
41.125
20
-16.524999999999999
42
-0.41421356237309503
10
40.625
20
-16.024999999999999
10
40.625
20
-3.0249999999999999
42
-0.41421356237309503
0
LWPOLYLINE
5
103
100
AcDbEntity
8
0
100
AcDbPolyline
90
8
70
1
43
0.0
10
60.174999999999997
20
-2.5249999999999999
10
73.174999999999997
20
-2.5250000000000017
42
-0.41421356237309503
10
73.674999999999997
20
-3.0249999999999999
10
73.674999999999997
20
-16.024999999999999
42
-0.41421356237309503
10
73.174999999999997
20
-16.524999999999999
10
60.174999999999997
20
-16.524999999999999
42
-0.41421356237309503
10
59.675000000000004
20
-16.024999999999999
10
59.675000000000004
20
-3.0249999999999999
42
-0.41421356237309503
0
LWPOLYLINE
5
104
100
AcDbEntity
8
0
100
AcDbPolyline
90
8
70
1
43
0.0
10
79.224999999999994
20
-2.5249999999999999
10
92.224999999999994
20
-2.5250000000000106
42
-0.41421356237309503
10
92.724999999999994
20
-3.0249999999999999
10
92.725000000000009
20
-16.024999999999999
42
-0.41421356237309503
10
92.224999999999994
20
-16.524999999999999
10
79.224999999999994
20
-16.524999999999999
42
-0.41421356237309503
10
78.724999999999994
20
-16.024999999999999
10
78.724999999999994
20
-3.0249999999999999
42
-0.41421356237309503
0
LWPOLYLINE
5
105
100
AcDbEntity
8
0
100
AcDbPolyline
90
8
70
1
43
0.0
10
107.80000000000001
20
-2.5249999999999999
10
120.8
20
-2.5249999999999928
42
-0.41421356237309503
10
121.30000000000001
20
-3.0249999999999999
10
121.29999999999998
20
-16.024999999999999
42
-0.41421356237309503
10
120.8
20
-16.524999999999999
10
107.80000000000001
20
-16.525000000000006
42
-0.41421356237309503
10
107.30000000000001
20
-16.024999999999999
10
107.30000000000001
20
-3.0249999999999999
42
-0.41421356237309503
0
LWPOLYLINE
5
106
100
AcDbEntity
8
0
100
AcDbPolyline
90
8
70
1
43
0.0
10
126.85000000000001
20
-2.5249999999999999
10
139.84999999999999
20
-2.5249999999999928
42
-0.41421356237309503
10
140.34999999999999
20
-3.0249999999999999
10
140.34999999999999
20
-16.024999999999999
42
-0.41421356237309503
10
139.84999999999999
20
-16.524999999999999
10
126.85000000000001
20
-16.525000000000006
42
-0.41421356237309503
10
126.34999999999999
20
-16.024999999999999
10
126.34999999999999
20
-3.0249999999999999
42
-0.41421356237309503
0
LWPOLYLINE
5
107
100
AcDbEntity
8
0
100
AcDbPolyline
90
8
70
1
43
0.0
10
145.90000000000001
20
-2.5249999999999999
10
158.90000000000001
20
-2.5249999999999928
42
-0.41421356237309503
10
159.40000000000001
20
-3.0249999999999999
10
159.40000000000001
20
-16.024999999999999
42
-0.41421356237309503
10
158.90000000000001
20
-16.524999999999999
10
145.90000000000001
20
-16.525000000000006
42
-0.41421356237309503
10
145.40000000000001
20
-16.024999999999999
10
145.40000000000001
20
-3.0249999999999999
42
-0.41421356237309503
0
LWPOLYLINE
5
108
100
AcDbEntity
8
0
100
AcDbPolyline
90
8
70
1
43
0.0
10
164.95000000000002
20
-2.5249999999999999
10
177.94999999999999
20
-2.5249999999999928
42
-0.41421356237309503
10
178.44999999999999
20
-3.0249999999999999
10
178.44999999999999
20
-16.024999999999999
42
-0.41421356237309503
10
177.94999999999999
20
-16.524999999999999
10
164.95000000000002
20
-16.525000000000006
42
-0.41421356237309503
10
164.44999999999999
20
-16.024999999999999
10
164.44999999999999
20
-3.0249999999999999
42
-0.41421356237309503
0
LWPOLYLINE
5
109
100
AcDbEntity
8
0
100
AcDbPolyline
90
8
70
1
43
0.0
10
184.00000000000003
20
-2.5249999999999999
10
197.00000000000003
20
-2.5250000000000283
42
-0.41421356237309503
10
197.5
20
-3.0249999999999999
10
197.50000000000003
20
-16.024999999999999
42
-0.41421356237309503
10
197.00000000000003
20
-16.524999999999999
10
184.00000000000003
20
-16.525000000000006
42
-0.41421356237309503
10
183.5
20
-16.024999999999999
10
183.5
20
-3.0249999999999999
42
-0.41421356237309503
0
LWPOLYLINE
5
110
100
AcDbEntity
8
0
100
AcDbPolyline
90
8
70
1
43
0.0
10
7.7875000000000005
20
-21.575000000000003
10
20.787500000000001
20
-21.575000000000003
42
-0.41421356237309503
10
21.287500000000001
20
-22.074999999999999
10
21.287500000000005
20
-35.075000000000003
42
-0.41421356237309503
10
20.787500000000001
20
-35.575000000000003
10
7.7875000000000005
20
-35.575000000000003
42
-0.41421356237309503
10
7.2874999999999996
20
-35.075000000000003
10
7.2875000000000023
20
-22.074999999999999
42
-0.41421356237309503
0
LWPOLYLINE
5
111
100
AcDbEntity
8
0
100
AcDbPolyline
90
8
70
1
43
0.0
10
26.837499999999999
20
-21.575000000000003
10
39.837499999999999
20
-21.574999999999996
42
-0.41421356237309503
10
40.337500000000006
20
-22.074999999999999
10
40.337500000000006
20
-35.075000000000003
42
-0.41421356237309503
10
39.837499999999999
20
-35.575000000000003
10
26.837499999999999
20
-35.575000000000003
42
-0.41421356237309503
10
26.337499999999999
20
-35.075000000000003
10
26.337499999999999
20
-22.074999999999999
42
-0.41421356237309503
0
LWPOLYLINE
5
112
100
AcDbEntity
8
0
100
AcDbPolyline
90
8
70
1
43
0.0
10
45.887500000000003
20
-21.575000000000003
10
58.88750000000001
20
-21.575000000000003
42
-0.41421356237309503
10
59.387500000000003
20
-22.074999999999999
10
59.387500000000003
20
-35.075000000000003
42
-0.41421356237309503
10
58.88750000000001
20
-35.575000000000003
10
45.887500000000003
20
-35.575000000000003
42
-0.41421356237309503
10
45.387500000000003
20
-35.075000000000003
10
45.387500000000003
20
-22.074999999999999
42
-0.41421356237309503
0
LWPOLYLINE
5
113
100
AcDbEntity
8
0
100
AcDbPolyline
90
8
70
1
43
0.0
10
64.9375
20
-21.575000000000003
10
77.9375
20
-21.575000000000003
42
-0.41421356237309503
10
78.4375
20
-22.074999999999999
10
78.4375
20
-35.075000000000003
42
-0.41421356237309503
10
77.9375
20
-35.575000000000003
10
64.9375
20
-35.575000000000003
42
-0.41421356237309503
10
64.4375
20
-35.075000000000003
10
64.4375
20
-22.074999999999999
42
-0.41421356237309503
0
LWPOLYLINE
5
114
100
AcDbEntity
8
0
100
AcDbPolyline
90
8
70
1
43
0.0
10
83.987499999999997
20
-21.575000000000003
10
96.987500000000011
20
-21.574999999999992
42
-0.41421356237309503
10
97.487500000000011
20
-22.074999999999999
10
97.487500000000011
20
-35.075000000000003
42
-0.41421356237309503
10
96.987500000000011
20
-35.575000000000003
10
83.987499999999997
20
-35.574999999999989
42
-0.41421356237309503
10
83.487500000000011
20
-35.075000000000003
10
83.487499999999983
20
-22.074999999999999
42
-0.41421356237309503
0
LWPOLYLINE
5
115
100
AcDbEntity
8
0
100
AcDbPolyline
90
8
70
1
43
0.0
10
103.03750000000001
20
-21.575000000000003
10
116.03749999999999
20
-21.574999999999992
42
-0.41421356237309503
10
116.53750000000001
20
-22.074999999999999
10
116.53750000000001
20
-35.075000000000003
42
-0.41421356237309503
10
116.03749999999999
20
-35.575000000000003
10
103.03750000000001
20
-35.57500000000001
42
-0.41421356237309503
10
102.53749999999999
20
-35.075000000000003
10
102.53749999999999
20
-22.074999999999999
42
-0.41421356237309503
0
LWPOLYLINE
5
116
100
AcDbEntity
8
0
100
AcDbPolyline
90
8
70
1
43
0.0
10
122.08750000000002
20
-21.575000000000003
10
135.08750000000001
20
-21.574999999999992
42
-0.41421356237309503
10
135.58750000000001
20
-22.074999999999999
10
135.58750000000001
20
-35.075000000000003
42
-0.41421356237309503
10
135.08750000000001
20
-35.575000000000003
10
122.08750000000002
20
-35.57500000000001
42
-0.41421356237309503
10
121.58750000000001
20
-35.075000000000003
10
121.58750000000001
20
-22.074999999999999
42
-0.41421356237309503
0
LWPOLYLINE
5
117
100
AcDbEntity
8
0
100
AcDbPolyline
90
8
70
1
43
0.0
10
141.13749999999999
20
-21.575000000000003
10
154.13749999999999
20
-21.57500000000001
42
-0.41421356237309503
10
154.63749999999999
20
-22.074999999999999
10
154.63750000000002
20
-35.075000000000003
42
-0.41421356237309503
10
154.13749999999999
20
-35.575000000000003
10
141.13749999999999
20
-35.57500000000001
42
-0.41421356237309503
10
140.63749999999999
20
-35.075000000000003
10
140.63749999999999
20
-22.074999999999999
42
-0.41421356237309503
0
LWPOLYLINE
5
118
100
AcDbEntity
8
0
100
AcDbPolyline
90
8
70
1
43
0.0
10
160.1875
20
-21.575000000000003
10
173.1875
20
-21.574999999999992
42
-0.41421356237309503
10
173.68750000000003
20
-22.074999999999999
10
173.68750000000003
20
-35.075000000000003
42
-0.41421356237309503
10
173.1875
20
-35.575000000000003
10
160.1875
20
-35.57500000000001
42
-0.41421356237309503
10
159.6875
20
-35.075000000000003
10
159.6875
20
-22.074999999999999
42
-0.41421356237309503
0
LWPOLYLINE
5
119
100
AcDbEntity
8
0
100
AcDbPolyline
90
8
70
1
43
0.0
10
179.23750000000001
20
-21.575000000000003
10
192.23750000000001
20
-21.574999999999992
42
-0.41421356237309503
10
192.73750000000004
20
-22.074999999999999
10
192.73750000000004
20
-35.075000000000003
42
-0.41421356237309503
10
192.23750000000001
20
-35.575000000000003
10
179.23750000000001
20
-35.57500000000001
42
-0.41421356237309503
10
178.73750000000001
20
-35.075000000000003
10
178.73750000000001
20
-22.074999999999999
42
-0.41421356237309503
0
LWPOLYLINE
5
120
100
AcDbEntity
8
0
100
AcDbPolyline
90
8
70
1
43
0.0
10
3.0249999999999999
20
-40.625
10
16.024999999999999
20
-40.625
42
-0.41421356237309503
10
16.524999999999999
20
-41.125
10
16.524999999999999
20
-54.125000000000007
42
-0.41421356237309503
10
16.024999999999999
20
-54.625
10
3.0249999999999999
20
-54.625
42
-0.41421356237309503
10
2.5249999999999999
20
-54.125000000000007
10
2.5250000000000017
20
-41.125
42
-0.41421356237309503
0
LWPOLYLINE
5
121
100
AcDbEntity
8
0
100
AcDbPolyline
90
8
70
1
43
0.0
10
22.074999999999999
20
-40.625
10
35.075000000000003
20
-40.625
42
-0.41421356237309503
10
35.575000000000003
20
-41.125
10
35.575000000000003
20
-54.125000000000007
42
-0.41421356237309503
10
35.075000000000003
20
-54.625
10
22.074999999999999
20
-54.625
42
-0.41421356237309503
10
21.575000000000003
20
-54.125000000000007
10
21.575000000000003
20
-41.125
42
-0.41421356237309503
0
LWPOLYLINE
5
122
100
AcDbEntity
8
0
100
AcDbPolyline
90
8
70
1
43
0.0
10
41.125
20
-40.625
10
54.125000000000007
20
-40.625
42
-0.41421356237309503
10
54.625
20
-41.125
10
54.625
20
-54.125000000000007
42
-0.41421356237309503
10
54.125000000000007
20
-54.625
10
41.125
20
-54.625
42
-0.41421356237309503
10
40.625
20
-54.125000000000007
10
40.625
20
-41.125
42
-0.41421356237309503
0
LWPOLYLINE
5
123
100
AcDbEntity
8
0
100
AcDbPolyline
90
8
70
1
43
0.0
10
60.174999999999997
20
-40.625
10
73.174999999999997
20
-40.625
42
-0.41421356237309503
10
73.674999999999997
20
-41.125
10
73.674999999999997
20
-54.125000000000007
42
-0.41421356237309503
10
73.174999999999997
20
-54.625
10
60.174999999999997
20
-54.625
42
-0.41421356237309503
10
59.675000000000004
20
-54.125000000000007
10
59.675000000000004
20
-41.125
42
-0.41421356237309503
0
LWPOLYLINE
5
124
100
AcDbEntity
8
0
100
AcDbPolyline
90
8
70
1
43
0.0
10
79.224999999999994
20
-40.625
10
92.224999999999994
20
-40.625000000000007
42
-0.41421356237309503
10
92.724999999999994
20
-41.125
10
92.725000000000009
20
-54.125000000000007
42
-0.41421356237309503
10
92.224999999999994
20
-54.625
10
79.224999999999994
20
-54.625
42
-0.41421356237309503
10
78.724999999999994
20
-54.125000000000007
10
78.724999999999994
20
-41.125
42
-0.41421356237309503
0
LWPOLYLINE
5
125
100
AcDbEntity
8
0
100
AcDbPolyline
90
8
70
1
43
0.0
10
107.80000000000001
20
-40.625
10
120.8
20
-40.624999999999993
42
-0.41421356237309503
10
121.30000000000001
20
-41.125
10
121.29999999999998
20
-54.125000000000007
42
-0.41421356237309503
10
120.8
20
-54.625
10
107.80000000000001
20
-54.625000000000014
42
-0.41421356237309503
10
107.30000000000001
20
-54.125000000000007
10
107.30000000000001
20
-41.125
42
-0.41421356237309503
0
LWPOLYLINE
5
126
100
AcDbEntity
8
0
100
AcDbPolyline
90
8
70
1
43
0.0
10
126.85000000000001
20
-40.625
10
139.84999999999999
20
-40.624999999999993
42
-0.41421356237309503
10
140.34999999999999
20
-41.125
10
140.34999999999999
20
-54.125000000000007
42
-0.41421356237309503
10
139.84999999999999
20
-54.625
10
126.85000000000001
20
-54.625000000000014
42
-0.41421356237309503
10
126.34999999999999
20
-54.125000000000007
10
126.35000000000002
20
-41.125
42
-0.41421356237309503
0
LWPOLYLINE
5
127
100
AcDbEntity
8
0
100
AcDbPolyline
90
8
70
1
43
0.0
10
145.90000000000001
20
-40.625
10
158.90000000000001
20
-40.624999999999993
42
-0.41421356237309503
10
159.40000000000001
20
-41.125
10
159.40000000000001
20
-54.125000000000007
42
-0.41421356237309503
10
158.90000000000001
20
-54.625
10
145.90000000000001
20
-54.625000000000014
42
-0.41421356237309503
10
145.40000000000001
20
-54.125000000000007
10
145.40000000000003
20
-41.125
42
-0.41421356237309503
0
LWPOLYLINE
5
128
100
AcDbEntity
8
0
100
AcDbPolyline
90
8
70
1
43
0.0
10
164.95000000000002
20
-40.625
10
177.94999999999999
20
-40.624999999999993
42
-0.41421356237309503
10
178.44999999999999
20
-41.125
10
178.44999999999999
20
-54.125000000000007
42
-0.41421356237309503
10
177.94999999999999
20
-54.625
10
164.95000000000002
20
-54.625000000000014
42
-0.41421356237309503
10
164.44999999999999
20
-54.125000000000007
10
164.44999999999999
20
-41.125
42
-0.41421356237309503
0
LWPOLYLINE
5
129
100
AcDbEntity
8
0
100
AcDbPolyline
90
8
70
1
43
0.0
10
184.00000000000003
20
-40.625
10
197.00000000000003
20
-40.625000000000028
42
-0.41421356237309503
10
197.5
20
-41.125
10
197.50000000000003
20
-54.125000000000007
42
-0.41421356237309503
10
197.00000000000003
20
-54.625
10
184.00000000000003
20
-54.625000000000014
42
-0.41421356237309503
10
183.5
20
-54.125000000000007
10
183.5
20
-41.125
42
-0.41421356237309503
0
LWPOLYLINE
5
130
100
AcDbEntity
8
0
100
AcDbPolyline
90
8
70
1
43
0.0
10
74.462500000000006
20
-59.675000000000004
10
87.46250000000002
20
-59.675000000000011
42
-0.41421356237309503
10
87.962500000000006
20
-60.174999999999997
10
87.962500000000006
20
-73.174999999999997
42
-0.41421356237309503
10
87.46250000000002
20
-73.674999999999997
10
74.462500000000006
20
-73.674999999999997
42
-0.41421356237309503
10
73.962500000000006
20
-73.174999999999997
10
73.962500000000006
20
-60.174999999999997
42
-0.41421356237309503
0
LWPOLYLINE
5
131
100
AcDbEntity
8
0
100
AcDbPolyline
90
8
70
1
43
0.0
10
112.56250000000001
20
-59.675000000000004
10
125.5625
20
-59.674999999999997
42
-0.41421356237309503
10
126.06250000000001
20
-60.174999999999997
10
126.0625
20
-73.174999999999997
42
-0.41421356237309503
10
125.5625
20
-73.674999999999997
10
112.56250000000001
20
-73.675000000000011
42
-0.41421356237309503
10
112.0625
20
-73.174999999999997
10
112.0625
20
-60.174999999999997
42
-0.41421356237309503
0
LWPOLYLINE
5
132
100
AcDbEntity
8
0
100
AcDbPolyline
90
23
70
1
43
0.0
10
68.962500000000006
20
-76.200000000000003
10
131.06250000000003
20
-76.200000000000017
42
0.41421356237309193
10
136.0625
20
-71.200000000000017
10
136.0625
20
-65.174999999999997
42
-0.41421356237309553
10
141.06250000000003
20
-60.174999999999997
10
200.02500000000001
20
-60.174999999999997
10
204.22500000000002
20
-60.17499999999999
42
0.41421356237309825
10
205.02500000000001
20
-59.375
10
205.02500000000001
20
-59.174999999999983
42
0.41421356237309825
10
204.22500000000002
20
-58.374999999999993
10
204.02500000000001
20
-58.374999999999993
42
-0.99999999999999989
10
204.02500000000001
20
-55.975000000000009
10
204.22500000000002
20
-55.975000000000009
42
0.41421356237309825
10
205.02500000000001
20
-55.175000000000018
10
205.02500000000001
20
-54.975000000000009
42
0.41421356237309825
10
204.22500000000002
20
-54.175000000000011
10
200.02500000000001
20
-54.175000000000004
10
200.02500000000001
20
-60.174999999999997
10
200.02500000000001
20
0
10
0
20
0
10
0
20
-60.174999999999997
10
63.962500000000013
20
-60.174999999999997
10
63.962500000000013
20
-71.200000000000017
42
0.41421356237309553
0
LINE
5
133
100
AcDbEntity
8
0
100
AcDbLine
10
200.02500000000001
20
0
30
0
11
204.22500000000002
21
0
31
0
0
LINE
5
134
100
AcDbEntity
8
0
100
AcDbLine
10
204.22500000000002
20
-6.0000000000000009
30
0
11
200.02500000000001
21
-6.0000000000000009
31
0
0
LINE
5
135
100
AcDbEntity
8
0
100
AcDbLine
10
200.02500000000001
20
-6.0000000000000009
30
0
11
200.02500000000001
21
0
31
0
0
LINE
5
136
100
AcDbEntity
8
0
100
AcDbLine
10
0
20
0
30
0
11
-4.1999999999999993
21
-1.3877787807814457e-16
31
0
0
LINE
5
137
100
AcDbEntity
8
0
100
AcDbLine
10
-4.2000000000000002
20
-6.0000000894069672
30
0
11
0
21
-6.0000000894069672
31
0
0
LINE
5
138
100
AcDbEntity
8
0
100
AcDbLine
10
0
20
-6.0000000894069672
30
0
11
0
21
0
31
0
0
LINE
5
139
100
AcDbEntity
8
0
100
AcDbLine
10
0
20
-60.174999999999997
30
0
11
-4.2000000745058079
21
-60.174999999999997
31
0
0
LINE
5
140
100
AcDbEntity
8
0
100
AcDbLine
10
-4.2000000745058061
20
-54.175000000000004
30
0
11
0
21
-54.175000000000004
31
0
0
LINE
5
141
100
AcDbEntity
8
0
100
AcDbLine
10
0
20
-54.175000000000004
30
0
11
0
21
-60.174999999999997
31
0
0
LINE
5
142
100
AcDbEntity
8
0
100
AcDbLine
10
-4.0000000596046448
20
-55.800000430043966
30
0
11
-4.2000017517804862
21
-55.800000430043966
31
0
0
LINE
5
143
100
AcDbEntity
8
0
100
AcDbLine
10
-3.9977283717906991
20
-58.199998699128628
30
0
11
-4.2000000745058061
21
-58.199998699128628
31
0
0
ARC
5
144
100
AcDbEntity
8
0
100
AcDbCircle
10
-4.0000000596046448
20
-57.000000849366188
30
0
40
1.2000000000000011
210
0
220
0
230
1
100
AcDbArc
50
-90.108465168206934
51
90
0
LINE
5
145
100
AcDbEntity
8
0
100
AcDbLine
10
-5.0000000745058069
20
-59.375
30
0
11
-5.0000000745058077
21
-58.999998699128625
31
0
0
LINE
5
146
100
AcDbEntity
8
0
100
AcDbLine
10
-5.0000000745058077
20
-55.000000430045731
30
0
11
-5.0000000745058077
21
-54.975000000000009
31
0
0
LINE
5
147
100
AcDbEntity
8
0
100
AcDbLine
10
205.02500000000001
20
-0.80000000000000004
30
0
11
205.02500000000001
21
-0.99999999195336109
31
0
0
LINE
5
148
100
AcDbEntity
8
0
100
AcDbLine
10
205.02500000000001
20
-4.9999999061226843
30
0
11
205.02500000000001
21
-5.2000000000000011
31
0
0
ARC
5
149
100
AcDbEntity
8
0
100
AcDbCircle
10
204.02500000000003
20
-3.0000000000000004
30
0
40
1.2000000000000148
210
0
220
-0
230
1
100
AcDbArc
50
90
51
270.02266352066835
0
LINE
5
150
100
AcDbEntity
8
0
100
AcDbLine
10
204.0245253363455
20
-4.1999999061226845
30
0
11
204.22500000000002
21
-4.199999906122688
31
0
0
LINE
5
151
100
AcDbEntity
8
0
100
AcDbLine
10
204.02500000000003
20
-1.7999999999999856
30
0
11
204.22500003218647
21
-1.7999999919533602
31
0
0
LINE
5
152
100
AcDbEntity
8
0
100
AcDbLine
10
-4.0000000596046448
20
-1.800000044703483
30
0
11
-4.2000000357627902
21
-1.8000000357627866
31
0
0
LINE
5
153
100
AcDbEntity
8
0
100
AcDbLine
10
-3.9994233500588066
20
-4.1999999061226845
30
0
11
-4.1999999999999993
21
-4.1999999061226845
31
0
0
LINE
5
154
100
AcDbEntity
8
0
100
AcDbLine
10
-5
20
-0.80000000000000004
30
0
11
-5
21
-1.0000000357627874
31
0
0
LINE
5
155
100
AcDbEntity
8
0
100
AcDbLine
10
-5
20
-4.9999999061226852
30
0
11
-5
21
-5.2000000894069673
31
0
0
ARC
5
156
100
AcDbEntity
8
0
100
AcDbCircle
10
-4.0000000596046448
20
-3.0000000447034836
30
0
40
1.2000000000000002
210
0
220
0
230
1
100
AcDbArc
50
-90.027535853504801
51
90
0
ARC
5
157
100
AcDbEntity
8
0
100
AcDbCircle
10
-4.2000000000000011
20
-1.0000000357627883
30
0
40
0.79999999999999905
210
0
220
0
230
1
100
AcDbArc
50
180
51
269.99999743867892
0
ARC
5
158
100
AcDbEntity
8
0
100
AcDbCircle
10
-4.2000000000000002
20
-0.79999999999999971
30
0
40
0.7999999999999996
210
0
220
-0
230
1
100
AcDbArc
50
89.999999999999929
51
180
0
ARC
5
159
100
AcDbEntity
8
0
100
AcDbCircle
10
-4.1999999999999984
20
-4.9999999061226861
30
0
40
0.80000000000000182
210
0
220
0
230
1
100
AcDbArc
50
90.000000000000057
51
180
0
ARC
5
160
100
AcDbEntity
8
0
100
AcDbCircle
10
-4.2000000000000011
20
-5.2000000894069682
30
0
40
0.79999999999999905
210
0
220
0
230
1
100
AcDbArc
50
180
51
270.00000000000006
0
ARC
5
161
100
AcDbEntity
8
0
100
AcDbCircle
10
-4.200000074505807
20
-54.975000000000009
30
0
40
0.80000000000000071
210
0
220
-0
230
1
100
AcDbArc
50
89.999999999999929
51
180
0
ARC
5
162
100
AcDbEntity
8
0
100
AcDbCircle
10
-4.2000000745058239
20
-55.000000430045745
30
0
40
0.79999999999998406
210
0
220
0
230
1
100
AcDbArc
50
180
51
269.99987987405098
0
ARC
5
163
100
AcDbEntity
8
0
100
AcDbCircle
10
-4.200000074505807
20
-58.999998699128625
30
0
40
0.80000000000000071
210
0
220
-0
230
1
100
AcDbArc
50
89.999999999999929
51
180
0
ARC
5
164
100
AcDbEntity
8
0
100
AcDbCircle
10
-4.2000000745058097
20
-59.375
30
0
40
0.79999999999999738
210
0
220
0
230
1
100
AcDbArc
50
180
51
270.00000000000011
0
ARC
5
165
100
AcDbEntity
8
0
100
AcDbCircle
10
204.22500000000002
20
-5.2000000000000135
30
0
40
0.79999999999998739
210
0
220
0
230
1
100
AcDbArc
50
-90
51
0
0
ARC
5
166
100
AcDbEntity
8
0
100
AcDbCircle
10
204.22500000000002
20
-4.999999906122671
30
0
40
0.79999999999998295
210
0
220
0
230
1
100
AcDbArc
50
0
51
90
0
ARC
5
167
100
AcDbEntity
8
0
100
AcDbCircle
10
204.22499999999997
20
-0.9999999919533209
30
0
40
0.80000000000004001
210
0
220
0
230
1
100
AcDbArc
50
270.00000230518867
51
360
0
ARC
5
168
100
AcDbEntity
8
0
100
AcDbCircle
10
204.22500000000002
20
-0.7999999999999865
30
0
40
0.79999999999998295
210
-0
220
0
230
1
100
AcDbArc
50
0
51
90
0
ENDSEC
0
SECTION
2
OBJECTS
0
DICTIONARY
5
C
100
AcDbDictionary
3
ACAD_GROUP
350
D
3
ACAD_MLINESTYLE
350
17
0
DICTIONARY
5
D
100
AcDbDictionary
0
DICTIONARY
5
1A
330
C
100
AcDbDictionary
0
DICTIONARY
5
17
100
AcDbDictionary
0
ENDSEC
0
EOF
